<svg width="512" height="512" version="1.1" viewBox="0 0 135.47 135.47" xmlns="http://www.w3.org/2000/svg">
 <g fill-rule="evenodd">
  <path d="m64.502 3.6392 5.1221-0.050584c21.613-0.21341 39.195 17.016 39.421 38.631l0.52489 50.207c0.22598 21.615-16.992 39.188-38.605 39.401l-5.1221 0.0506c-21.613 0.21342-39.195-17.016-39.421-38.631l-0.52489-50.207c-0.22597-21.615 16.992-39.188 38.605-39.401z" color="#000000" fill="#f0f5ff" stroke-width="7.1582"/>
  <path d="m64.465 0.052698c-23.538 0.23242-42.4 19.484-42.154 43.023l0.52489 50.207c0.24609 23.539 19.507 42.414 43.045 42.182l5.1218-0.0506c23.538-0.23243 42.4-19.484 42.154-43.023l-0.52489-50.207c-0.24609-23.539-19.507-42.414-43.045-42.182zm0.07499 7.1729 5.1218-0.050568c19.688-0.19441 35.591 15.39 35.797 35.08l0.52489 50.207c0.20585 19.69-15.368 35.585-35.056 35.779l-5.1218 0.0506c-19.688 0.19444-35.591-15.39-35.797-35.08l-0.52489-50.207c-0.20585-19.69 15.368-35.585 35.056-35.779z" color="#000000" stroke-width=".26458"/>
  <path d="m109.31 67.322 0.24792 23.715c0.23403 22.384-18.12 40.588-41.151 40.814-23.032 0.22741-41.764-17.61-41.996-39.993l-0.24795-23.715z" color="#000000" fill="#5772ae" stroke-width="7.1582"/>
 </g>
 <g stroke-width=".26458">
  <path d="m112.86 63.7-3.5841 0.03574-86.736 0.85601 0.28586 27.304c0.25247 24.364 20.715 43.787 45.618 43.541 24.902-0.24371 44.957-20.073 44.702-44.438zm-7.0977 7.2437 0.21025 20.131c0.21332 20.403-16.439 36.983-37.599 37.19h-5.29e-4c-21.161 0.20894-38.163-16.041-38.374-36.443v-5.27e-4l-0.21077-20.127z" color="#000000" fill-rule="evenodd"/>
  <g stroke-linecap="round" stroke-linejoin="round">
   <path d="m52.573 24.05c-2.7172 0-5.223 0.63338-7.2862 1.8959-2.0632 1.2625-3.8901 3.439-3.8901 6.236a3.3319 3.3319 0 0 0 3.3319 3.3319 3.3319 3.3319 0 0 0 3.3319-3.3319c0 0.14584-0.07125-0.07717 0.7048-0.55203 0.77605-0.47486 2.1924-0.91608 3.8078-0.91608 1.6154 0 3.0323 0.44123 3.8083 0.91608 0.77603 0.47485 0.7048 0.69782 0.7048 0.55203a3.3319 3.3319 0 0 0 3.3319 3.3319 3.3319 3.3319 0 0 0 3.3319-3.3319c0-2.7969-1.8274-4.9735-3.8906-6.236-2.0632-1.2625-4.569-1.8959-7.2862-1.8959z" color="#000000" style="paint-order:stroke fill markers"/>
   <path d="m82.883 24.05c-2.7172 0-5.223 0.63338-7.2862 1.8959-2.0632 1.2625-3.8901 3.439-3.8901 6.236a3.3319 3.3319 0 0 0 3.3319 3.3319 3.3319 3.3319 0 0 0 3.3319-3.3319c0 0.14584-0.07125-0.07717 0.7048-0.55203 0.77605-0.47486 2.1924-0.91608 3.8078-0.91608 1.6154 0 3.0323 0.44123 3.8083 0.91608 0.77602 0.47485 0.7048 0.69782 0.7048 0.55203a3.3319 3.3319 0 0 0 3.3319 3.3319 3.3319 3.3319 0 0 0 3.3319-3.3319c0-2.7969-1.8274-4.9735-3.8906-6.236-2.0632-1.2625-4.569-1.8959-7.2862-1.8959z" color="#000000" style="paint-order:stroke fill markers"/>
   <path d="m59.639 45.31a3.3319 3.3319 0 0 0-3.3319 3.3319c0 2.797 1.8274 4.974 3.8906 6.2365 2.0632 1.2625 4.569 1.8953 7.2862 1.8953 2.7172 0 5.223-0.63285 7.2862-1.8953 2.0632-1.2625 3.8901-3.4396 3.8901-6.2365a3.3319 3.3319 0 0 0-3.3319-3.3319 3.3319 3.3319 0 0 0-3.3319 3.3319c0-0.14579 0.07122 0.07718-0.7048 0.55203-0.77602 0.47486-2.1924 0.91608-3.8078 0.91608-1.6153 0-3.0322-0.44122-3.8083-0.91608-0.77605-0.47486-0.7048-0.69786-0.7048-0.55203a3.3319 3.3319 0 0 0-3.3319-3.3319z" color="#000000" style="paint-order:stroke fill markers"/>
  </g>
 </g>
</svg>
